<mxfile host="app.diagrams.net" modified="2021-04-11T08:06:39.896Z" agent="5.0 (Windows NT 10.0; Win64; x64) AppleWebKit/537.36 (KHTML, like Gecko) Chrome/89.0.4389.114 Safari/537.36" etag="_BCrJrweFyqz7Hpmcuyw" version="14.5.10" type="github">
  <diagram id="C5RBs43oDa-KdzZeNtuy" name="Page-1">
    <mxGraphModel dx="1331" dy="712" grid="1" gridSize="10" guides="1" tooltips="1" connect="1" arrows="1" fold="1" page="1" pageScale="1" pageWidth="827" pageHeight="1169" math="0" shadow="0">
      <root>
        <mxCell id="WIyWlLk6GJQsqaUBKTNV-0" />
        <mxCell id="WIyWlLk6GJQsqaUBKTNV-1" parent="WIyWlLk6GJQsqaUBKTNV-0" />
        <mxCell id="N2T89UlClwzI-g70O4C0-39" value="1" style="text;html=1;strokeColor=none;fillColor=none;align=center;verticalAlign=middle;whiteSpace=wrap;rounded=0;" vertex="1" parent="WIyWlLk6GJQsqaUBKTNV-1">
          <mxGeometry x="671" y="505" width="40" height="20" as="geometry" />
        </mxCell>
        <mxCell id="ez880dVHIVuCgmiljGzb-1" value="Staff" style="html=1;fillColor=#fff2cc;strokeColor=#d6b656;" parent="WIyWlLk6GJQsqaUBKTNV-1" vertex="1">
          <mxGeometry x="110" y="340" width="110" height="50" as="geometry" />
        </mxCell>
        <mxCell id="ez880dVHIVuCgmiljGzb-2" value="Customer" style="html=1;fillColor=#fff2cc;strokeColor=#d6b656;" parent="WIyWlLk6GJQsqaUBKTNV-1" vertex="1">
          <mxGeometry x="110" y="250" width="110" height="50" as="geometry" />
        </mxCell>
        <mxCell id="ZUsl4Q0QTKhwD85ZHyG3-0" value="Rental" style="rounded=0;whiteSpace=wrap;html=1;fillColor=#d5e8d4;strokeColor=#82b366;" parent="WIyWlLk6GJQsqaUBKTNV-1" vertex="1">
          <mxGeometry x="290" y="335" width="120" height="60" as="geometry" />
        </mxCell>
        <mxCell id="07rFvq7O-HwLPc1QNcso-0" value="Rental Center Staff" style="html=1;fillColor=#fff2cc;strokeColor=#d6b656;" parent="WIyWlLk6GJQsqaUBKTNV-1" vertex="1">
          <mxGeometry x="40" y="505" width="110" height="50" as="geometry" />
        </mxCell>
        <mxCell id="07rFvq7O-HwLPc1QNcso-1" value="Headquarter Staff" style="html=1;fillColor=#fff2cc;strokeColor=#d6b656;" parent="WIyWlLk6GJQsqaUBKTNV-1" vertex="1">
          <mxGeometry x="180" y="505" width="110" height="50" as="geometry" />
        </mxCell>
        <mxCell id="N2T89UlClwzI-g70O4C0-0" value="Person" style="rounded=0;whiteSpace=wrap;html=1;fillColor=#fff2cc;strokeColor=#d6b656;" vertex="1" parent="WIyWlLk6GJQsqaUBKTNV-1">
          <mxGeometry x="20" y="165" width="120" height="60" as="geometry" />
        </mxCell>
        <mxCell id="N2T89UlClwzI-g70O4C0-1" value="Car Model" style="rounded=0;whiteSpace=wrap;html=1;fillColor=#dae8fc;strokeColor=#6c8ebf;" vertex="1" parent="WIyWlLk6GJQsqaUBKTNV-1">
          <mxGeometry x="490" y="200" width="120" height="60" as="geometry" />
        </mxCell>
        <mxCell id="N2T89UlClwzI-g70O4C0-2" value="Car Item" style="rounded=0;whiteSpace=wrap;html=1;fillColor=#dae8fc;strokeColor=#6c8ebf;" vertex="1" parent="WIyWlLk6GJQsqaUBKTNV-1">
          <mxGeometry x="490" y="335" width="120" height="60" as="geometry" />
        </mxCell>
        <mxCell id="N2T89UlClwzI-g70O4C0-3" value="Reservation" style="rounded=0;whiteSpace=wrap;html=1;fillColor=#d5e8d4;strokeColor=#82b366;" vertex="1" parent="WIyWlLk6GJQsqaUBKTNV-1">
          <mxGeometry x="290" y="200" width="120" height="60" as="geometry" />
        </mxCell>
        <mxCell id="N2T89UlClwzI-g70O4C0-4" value="" style="endArrow=block;endSize=16;endFill=0;html=1;exitX=0;exitY=0.5;exitDx=0;exitDy=0;entryX=0.5;entryY=1;entryDx=0;entryDy=0;" edge="1" parent="WIyWlLk6GJQsqaUBKTNV-1" source="ez880dVHIVuCgmiljGzb-2" target="N2T89UlClwzI-g70O4C0-0">
          <mxGeometry x="-0.625" y="74" width="160" relative="1" as="geometry">
            <mxPoint x="220" y="310" as="sourcePoint" />
            <mxPoint x="380" y="310" as="targetPoint" />
            <Array as="points">
              <mxPoint x="80" y="275" />
            </Array>
            <mxPoint as="offset" />
          </mxGeometry>
        </mxCell>
        <mxCell id="N2T89UlClwzI-g70O4C0-5" value="Company" style="html=1;fillColor=#dae8fc;strokeColor=#6c8ebf;" vertex="1" parent="WIyWlLk6GJQsqaUBKTNV-1">
          <mxGeometry x="370" y="505" width="110" height="50" as="geometry" />
        </mxCell>
        <mxCell id="N2T89UlClwzI-g70O4C0-6" value="Rental Center" style="html=1;fillColor=#dae8fc;strokeColor=#6c8ebf;" vertex="1" parent="WIyWlLk6GJQsqaUBKTNV-1">
          <mxGeometry x="550" y="505" width="110" height="50" as="geometry" />
        </mxCell>
        <mxCell id="N2T89UlClwzI-g70O4C0-7" value="Inventory" style="html=1;fillColor=#dae8fc;strokeColor=#6c8ebf;" vertex="1" parent="WIyWlLk6GJQsqaUBKTNV-1">
          <mxGeometry x="698" y="505" width="110" height="50" as="geometry" />
        </mxCell>
        <mxCell id="N2T89UlClwzI-g70O4C0-12" value="" style="endArrow=none;endFill=0;endSize=12;html=1;entryX=0;entryY=0.5;entryDx=0;entryDy=0;" edge="1" parent="WIyWlLk6GJQsqaUBKTNV-1" target="ez880dVHIVuCgmiljGzb-1">
          <mxGeometry width="160" relative="1" as="geometry">
            <mxPoint x="80" y="250" as="sourcePoint" />
            <mxPoint x="270" y="390" as="targetPoint" />
            <Array as="points">
              <mxPoint x="80" y="365" />
            </Array>
          </mxGeometry>
        </mxCell>
        <mxCell id="N2T89UlClwzI-g70O4C0-14" value="" style="endArrow=none;html=1;exitX=1;exitY=0.5;exitDx=0;exitDy=0;startArrow=none;startFill=0;" edge="1" parent="WIyWlLk6GJQsqaUBKTNV-1" source="N2T89UlClwzI-g70O4C0-1">
          <mxGeometry width="50" height="50" relative="1" as="geometry">
            <mxPoint x="410" y="490" as="sourcePoint" />
            <mxPoint x="753" y="480" as="targetPoint" />
            <Array as="points">
              <mxPoint x="753" y="230" />
            </Array>
          </mxGeometry>
        </mxCell>
        <mxCell id="N2T89UlClwzI-g70O4C0-15" value="" style="endArrow=block;endSize=16;endFill=0;html=1;entryX=0.5;entryY=1;entryDx=0;entryDy=0;" edge="1" parent="WIyWlLk6GJQsqaUBKTNV-1">
          <mxGeometry x="-0.625" y="74" width="160" relative="1" as="geometry">
            <mxPoint x="160" y="470" as="sourcePoint" />
            <mxPoint x="160" y="390" as="targetPoint" />
            <Array as="points">
              <mxPoint x="160" y="440" />
            </Array>
            <mxPoint as="offset" />
          </mxGeometry>
        </mxCell>
        <mxCell id="N2T89UlClwzI-g70O4C0-16" value="" style="endArrow=none;html=1;entryX=0.5;entryY=0;entryDx=0;entryDy=0;" edge="1" parent="WIyWlLk6GJQsqaUBKTNV-1" target="07rFvq7O-HwLPc1QNcso-1">
          <mxGeometry width="50" height="50" relative="1" as="geometry">
            <mxPoint x="90" y="505" as="sourcePoint" />
            <mxPoint x="140" y="455" as="targetPoint" />
            <Array as="points">
              <mxPoint x="90" y="470" />
              <mxPoint x="160" y="470" />
              <mxPoint x="235" y="470" />
            </Array>
          </mxGeometry>
        </mxCell>
        <mxCell id="N2T89UlClwzI-g70O4C0-19" value="" style="endArrow=none;html=1;exitX=1;exitY=0.5;exitDx=0;exitDy=0;entryX=0;entryY=0.5;entryDx=0;entryDy=0;" edge="1" parent="WIyWlLk6GJQsqaUBKTNV-1" source="ez880dVHIVuCgmiljGzb-1" target="ZUsl4Q0QTKhwD85ZHyG3-0">
          <mxGeometry width="50" height="50" relative="1" as="geometry">
            <mxPoint x="360" y="490" as="sourcePoint" />
            <mxPoint x="410" y="440" as="targetPoint" />
          </mxGeometry>
        </mxCell>
        <mxCell id="N2T89UlClwzI-g70O4C0-20" value="" style="endArrow=none;html=1;exitX=1;exitY=0.5;exitDx=0;exitDy=0;entryX=0;entryY=0.5;entryDx=0;entryDy=0;" edge="1" parent="WIyWlLk6GJQsqaUBKTNV-1" source="ez880dVHIVuCgmiljGzb-2" target="N2T89UlClwzI-g70O4C0-3">
          <mxGeometry width="50" height="50" relative="1" as="geometry">
            <mxPoint x="360" y="490" as="sourcePoint" />
            <mxPoint x="410" y="440" as="targetPoint" />
          </mxGeometry>
        </mxCell>
        <mxCell id="N2T89UlClwzI-g70O4C0-21" value="" style="endArrow=none;html=1;exitX=1;exitY=0.5;exitDx=0;exitDy=0;entryX=0;entryY=0.5;entryDx=0;entryDy=0;" edge="1" parent="WIyWlLk6GJQsqaUBKTNV-1" source="ez880dVHIVuCgmiljGzb-2" target="ZUsl4Q0QTKhwD85ZHyG3-0">
          <mxGeometry width="50" height="50" relative="1" as="geometry">
            <mxPoint x="230" y="375" as="sourcePoint" />
            <mxPoint x="290" y="375" as="targetPoint" />
          </mxGeometry>
        </mxCell>
        <mxCell id="N2T89UlClwzI-g70O4C0-22" value="" style="endArrow=none;html=1;exitX=0.5;exitY=1;exitDx=0;exitDy=0;" edge="1" parent="WIyWlLk6GJQsqaUBKTNV-1" source="N2T89UlClwzI-g70O4C0-3" target="ZUsl4Q0QTKhwD85ZHyG3-0">
          <mxGeometry width="50" height="50" relative="1" as="geometry">
            <mxPoint x="230" y="285" as="sourcePoint" />
            <mxPoint x="290" y="375" as="targetPoint" />
          </mxGeometry>
        </mxCell>
        <mxCell id="N2T89UlClwzI-g70O4C0-23" value="" style="endArrow=none;html=1;entryX=0;entryY=0.5;entryDx=0;entryDy=0;" edge="1" parent="WIyWlLk6GJQsqaUBKTNV-1" source="N2T89UlClwzI-g70O4C0-3" target="N2T89UlClwzI-g70O4C0-1">
          <mxGeometry width="50" height="50" relative="1" as="geometry">
            <mxPoint x="230" y="375" as="sourcePoint" />
            <mxPoint x="300" y="375" as="targetPoint" />
          </mxGeometry>
        </mxCell>
        <mxCell id="N2T89UlClwzI-g70O4C0-24" value="" style="endArrow=none;html=1;entryX=0;entryY=0.5;entryDx=0;entryDy=0;exitX=1;exitY=0.5;exitDx=0;exitDy=0;" edge="1" parent="WIyWlLk6GJQsqaUBKTNV-1" source="ZUsl4Q0QTKhwD85ZHyG3-0" target="N2T89UlClwzI-g70O4C0-2">
          <mxGeometry width="50" height="50" relative="1" as="geometry">
            <mxPoint x="420" y="240" as="sourcePoint" />
            <mxPoint x="500" y="240" as="targetPoint" />
          </mxGeometry>
        </mxCell>
        <mxCell id="N2T89UlClwzI-g70O4C0-25" value="" style="endArrow=none;html=1;exitX=0.5;exitY=1;exitDx=0;exitDy=0;" edge="1" parent="WIyWlLk6GJQsqaUBKTNV-1" source="N2T89UlClwzI-g70O4C0-1" target="N2T89UlClwzI-g70O4C0-2">
          <mxGeometry width="50" height="50" relative="1" as="geometry">
            <mxPoint x="360" y="270" as="sourcePoint" />
            <mxPoint x="360" y="345" as="targetPoint" />
          </mxGeometry>
        </mxCell>
        <mxCell id="N2T89UlClwzI-g70O4C0-32" value="1" style="text;html=1;strokeColor=none;fillColor=none;align=center;verticalAlign=middle;whiteSpace=wrap;rounded=0;" vertex="1" parent="WIyWlLk6GJQsqaUBKTNV-1">
          <mxGeometry x="210" y="250" width="40" height="20" as="geometry" />
        </mxCell>
        <mxCell id="N2T89UlClwzI-g70O4C0-33" value="1" style="text;html=1;strokeColor=none;fillColor=none;align=center;verticalAlign=middle;whiteSpace=wrap;rounded=0;" vertex="1" parent="WIyWlLk6GJQsqaUBKTNV-1">
          <mxGeometry x="210" y="270" width="40" height="20" as="geometry" />
        </mxCell>
        <mxCell id="N2T89UlClwzI-g70O4C0-34" value="1" style="text;html=1;strokeColor=none;fillColor=none;align=center;verticalAlign=middle;whiteSpace=wrap;rounded=0;" vertex="1" parent="WIyWlLk6GJQsqaUBKTNV-1">
          <mxGeometry x="208" y="366" width="40" height="20" as="geometry" />
        </mxCell>
        <mxCell id="N2T89UlClwzI-g70O4C0-35" value="1" style="text;html=1;strokeColor=none;fillColor=none;align=center;verticalAlign=middle;whiteSpace=wrap;rounded=0;" vertex="1" parent="WIyWlLk6GJQsqaUBKTNV-1">
          <mxGeometry x="460" y="210" width="40" height="20" as="geometry" />
        </mxCell>
        <mxCell id="N2T89UlClwzI-g70O4C0-36" value="1" style="text;html=1;strokeColor=none;fillColor=none;align=center;verticalAlign=middle;whiteSpace=wrap;rounded=0;" vertex="1" parent="WIyWlLk6GJQsqaUBKTNV-1">
          <mxGeometry x="460" y="366" width="40" height="20" as="geometry" />
        </mxCell>
        <mxCell id="N2T89UlClwzI-g70O4C0-37" value="1" style="text;html=1;strokeColor=none;fillColor=none;align=center;verticalAlign=middle;whiteSpace=wrap;rounded=0;" vertex="1" parent="WIyWlLk6GJQsqaUBKTNV-1">
          <mxGeometry x="540" y="260" width="40" height="20" as="geometry" />
        </mxCell>
        <mxCell id="N2T89UlClwzI-g70O4C0-38" value="1" style="text;html=1;strokeColor=none;fillColor=none;align=center;verticalAlign=middle;whiteSpace=wrap;rounded=0;" vertex="1" parent="WIyWlLk6GJQsqaUBKTNV-1">
          <mxGeometry x="647" y="505" width="40" height="20" as="geometry" />
        </mxCell>
        <mxCell id="N2T89UlClwzI-g70O4C0-40" value="0..*" style="text;html=1;strokeColor=none;fillColor=none;align=center;verticalAlign=middle;whiteSpace=wrap;rounded=0;" vertex="1" parent="WIyWlLk6GJQsqaUBKTNV-1">
          <mxGeometry x="250" y="220" width="40" height="20" as="geometry" />
        </mxCell>
        <mxCell id="N2T89UlClwzI-g70O4C0-41" value="0..*" style="text;html=1;strokeColor=none;fillColor=none;align=center;verticalAlign=middle;whiteSpace=wrap;rounded=0;" vertex="1" parent="WIyWlLk6GJQsqaUBKTNV-1">
          <mxGeometry x="260" y="320" width="40" height="20" as="geometry" />
        </mxCell>
        <mxCell id="N2T89UlClwzI-g70O4C0-43" value="0..*" style="text;html=1;strokeColor=none;fillColor=none;align=center;verticalAlign=middle;whiteSpace=wrap;rounded=0;" vertex="1" parent="WIyWlLk6GJQsqaUBKTNV-1">
          <mxGeometry x="255" y="366" width="40" height="20" as="geometry" />
        </mxCell>
        <mxCell id="N2T89UlClwzI-g70O4C0-44" value="0..*" style="text;html=1;strokeColor=none;fillColor=none;align=center;verticalAlign=middle;whiteSpace=wrap;rounded=0;" vertex="1" parent="WIyWlLk6GJQsqaUBKTNV-1">
          <mxGeometry x="405" y="210" width="40" height="20" as="geometry" />
        </mxCell>
        <mxCell id="N2T89UlClwzI-g70O4C0-45" value="0..*" style="text;html=1;strokeColor=none;fillColor=none;align=center;verticalAlign=middle;whiteSpace=wrap;rounded=0;" vertex="1" parent="WIyWlLk6GJQsqaUBKTNV-1">
          <mxGeometry x="404" y="366" width="40" height="20" as="geometry" />
        </mxCell>
        <mxCell id="N2T89UlClwzI-g70O4C0-46" value="0..*" style="text;html=1;strokeColor=none;fillColor=none;align=center;verticalAlign=middle;whiteSpace=wrap;rounded=0;" vertex="1" parent="WIyWlLk6GJQsqaUBKTNV-1">
          <mxGeometry x="546" y="315" width="40" height="20" as="geometry" />
        </mxCell>
        <mxCell id="N2T89UlClwzI-g70O4C0-47" value="0..1" style="text;html=1;strokeColor=none;fillColor=none;align=center;verticalAlign=middle;whiteSpace=wrap;rounded=0;" vertex="1" parent="WIyWlLk6GJQsqaUBKTNV-1">
          <mxGeometry x="350" y="265" width="40" height="20" as="geometry" />
        </mxCell>
        <mxCell id="N2T89UlClwzI-g70O4C0-48" value="0..1" style="text;html=1;strokeColor=none;fillColor=none;align=center;verticalAlign=middle;whiteSpace=wrap;rounded=0;" vertex="1" parent="WIyWlLk6GJQsqaUBKTNV-1">
          <mxGeometry x="350" y="315" width="40" height="20" as="geometry" />
        </mxCell>
        <mxCell id="N2T89UlClwzI-g70O4C0-49" value="0..*" style="text;html=1;strokeColor=none;fillColor=none;align=center;verticalAlign=middle;whiteSpace=wrap;rounded=0;" vertex="1" parent="WIyWlLk6GJQsqaUBKTNV-1">
          <mxGeometry x="520" y="512" width="40" height="20" as="geometry" />
        </mxCell>
        <mxCell id="N2T89UlClwzI-g70O4C0-50" value="1" style="text;html=1;strokeColor=none;fillColor=none;align=center;verticalAlign=middle;whiteSpace=wrap;rounded=0;" vertex="1" parent="WIyWlLk6GJQsqaUBKTNV-1">
          <mxGeometry x="490" y="512" width="40" height="20" as="geometry" />
        </mxCell>
        <mxCell id="N2T89UlClwzI-g70O4C0-51" value="" style="endArrow=diamondThin;endFill=1;endSize=24;html=1;" edge="1" parent="WIyWlLk6GJQsqaUBKTNV-1" source="N2T89UlClwzI-g70O4C0-7" target="N2T89UlClwzI-g70O4C0-6">
          <mxGeometry width="160" relative="1" as="geometry">
            <mxPoint x="300" y="460" as="sourcePoint" />
            <mxPoint x="460" y="460" as="targetPoint" />
          </mxGeometry>
        </mxCell>
        <mxCell id="N2T89UlClwzI-g70O4C0-53" value="" style="endArrow=diamondThin;endFill=0;endSize=24;html=1;exitX=1;exitY=0.5;exitDx=0;exitDy=0;entryX=0.5;entryY=0;entryDx=0;entryDy=0;" edge="1" parent="WIyWlLk6GJQsqaUBKTNV-1" source="N2T89UlClwzI-g70O4C0-2" target="N2T89UlClwzI-g70O4C0-7">
          <mxGeometry width="160" relative="1" as="geometry">
            <mxPoint x="708" y="539.9999999999999" as="sourcePoint" />
            <mxPoint x="670" y="539.9999999999999" as="targetPoint" />
            <Array as="points">
              <mxPoint x="753" y="365" />
            </Array>
          </mxGeometry>
        </mxCell>
        <mxCell id="N2T89UlClwzI-g70O4C0-54" value="" style="endArrow=diamondThin;endFill=0;endSize=24;html=1;exitX=0.5;exitY=1;exitDx=0;exitDy=0;entryX=0.5;entryY=1;entryDx=0;entryDy=0;" edge="1" parent="WIyWlLk6GJQsqaUBKTNV-1" source="07rFvq7O-HwLPc1QNcso-0" target="N2T89UlClwzI-g70O4C0-6">
          <mxGeometry width="160" relative="1" as="geometry">
            <mxPoint x="278.5" y="599.9999999999999" as="sourcePoint" />
            <mxPoint x="421.5" y="739.9999999999999" as="targetPoint" />
            <Array as="points">
              <mxPoint x="95" y="610" />
              <mxPoint x="605" y="610" />
            </Array>
          </mxGeometry>
        </mxCell>
        <mxCell id="N2T89UlClwzI-g70O4C0-55" value="" style="endArrow=diamondThin;endFill=0;endSize=24;html=1;exitX=1;exitY=0.5;exitDx=0;exitDy=0;entryX=0;entryY=0.5;entryDx=0;entryDy=0;" edge="1" parent="WIyWlLk6GJQsqaUBKTNV-1" source="07rFvq7O-HwLPc1QNcso-1" target="N2T89UlClwzI-g70O4C0-5">
          <mxGeometry width="160" relative="1" as="geometry">
            <mxPoint x="288.5" y="609.9999999999999" as="sourcePoint" />
            <mxPoint x="431.5" y="750" as="targetPoint" />
            <Array as="points" />
          </mxGeometry>
        </mxCell>
        <mxCell id="N2T89UlClwzI-g70O4C0-56" value="1" style="text;html=1;strokeColor=none;fillColor=none;align=center;verticalAlign=middle;whiteSpace=wrap;rounded=0;" vertex="1" parent="WIyWlLk6GJQsqaUBKTNV-1">
          <mxGeometry x="320" y="512" width="40" height="20" as="geometry" />
        </mxCell>
        <mxCell id="N2T89UlClwzI-g70O4C0-57" value="0..*" style="text;html=1;strokeColor=none;fillColor=none;align=center;verticalAlign=middle;whiteSpace=wrap;rounded=0;" vertex="1" parent="WIyWlLk6GJQsqaUBKTNV-1">
          <mxGeometry x="280" y="512" width="40" height="20" as="geometry" />
        </mxCell>
        <mxCell id="N2T89UlClwzI-g70O4C0-58" value="1" style="text;html=1;strokeColor=none;fillColor=none;align=center;verticalAlign=middle;whiteSpace=wrap;rounded=0;" vertex="1" parent="WIyWlLk6GJQsqaUBKTNV-1">
          <mxGeometry x="570" y="555" width="40" height="20" as="geometry" />
        </mxCell>
        <mxCell id="N2T89UlClwzI-g70O4C0-59" value="0..*" style="text;html=1;strokeColor=none;fillColor=none;align=center;verticalAlign=middle;whiteSpace=wrap;rounded=0;" vertex="1" parent="WIyWlLk6GJQsqaUBKTNV-1">
          <mxGeometry x="90" y="555" width="40" height="20" as="geometry" />
        </mxCell>
        <mxCell id="N2T89UlClwzI-g70O4C0-60" value="" style="endArrow=diamondThin;endFill=1;endSize=24;html=1;exitX=0;exitY=0.5;exitDx=0;exitDy=0;" edge="1" parent="WIyWlLk6GJQsqaUBKTNV-1" source="N2T89UlClwzI-g70O4C0-6" target="N2T89UlClwzI-g70O4C0-5">
          <mxGeometry width="160" relative="1" as="geometry">
            <mxPoint x="708" y="539.9999999999999" as="sourcePoint" />
            <mxPoint x="670" y="539.9999999999999" as="targetPoint" />
          </mxGeometry>
        </mxCell>
        <mxCell id="N2T89UlClwzI-g70O4C0-61" value="1" style="text;html=1;strokeColor=none;fillColor=none;align=center;verticalAlign=middle;whiteSpace=wrap;rounded=0;" vertex="1" parent="WIyWlLk6GJQsqaUBKTNV-1">
          <mxGeometry x="720" y="346" width="40" height="20" as="geometry" />
        </mxCell>
        <mxCell id="N2T89UlClwzI-g70O4C0-62" value="0..*" style="text;html=1;strokeColor=none;fillColor=none;align=center;verticalAlign=middle;whiteSpace=wrap;rounded=0;" vertex="1" parent="WIyWlLk6GJQsqaUBKTNV-1">
          <mxGeometry x="604" y="346" width="40" height="20" as="geometry" />
        </mxCell>
        <mxCell id="N2T89UlClwzI-g70O4C0-63" value="1" style="text;html=1;strokeColor=none;fillColor=none;align=center;verticalAlign=middle;whiteSpace=wrap;rounded=0;" vertex="1" parent="WIyWlLk6GJQsqaUBKTNV-1">
          <mxGeometry x="720" y="210" width="40" height="20" as="geometry" />
        </mxCell>
        <mxCell id="N2T89UlClwzI-g70O4C0-64" value="0..*" style="text;html=1;strokeColor=none;fillColor=none;align=center;verticalAlign=middle;whiteSpace=wrap;rounded=0;" vertex="1" parent="WIyWlLk6GJQsqaUBKTNV-1">
          <mxGeometry x="604" y="210" width="40" height="20" as="geometry" />
        </mxCell>
        <mxCell id="N2T89UlClwzI-g70O4C0-65" value="" style="endArrow=none;endSize=12;dashed=1;html=1;exitX=0.5;exitY=1;exitDx=0;exitDy=0;endFill=0;" edge="1" parent="WIyWlLk6GJQsqaUBKTNV-1" source="ez880dVHIVuCgmiljGzb-2" target="ez880dVHIVuCgmiljGzb-1">
          <mxGeometry width="160" relative="1" as="geometry">
            <mxPoint x="320" y="380" as="sourcePoint" />
            <mxPoint x="480" y="380" as="targetPoint" />
          </mxGeometry>
        </mxCell>
        <mxCell id="N2T89UlClwzI-g70O4C0-67" value="" style="endArrow=none;endSize=12;dashed=1;html=1;endFill=0;entryX=0;entryY=0.5;entryDx=0;entryDy=0;" edge="1" parent="WIyWlLk6GJQsqaUBKTNV-1" source="07rFvq7O-HwLPc1QNcso-0" target="07rFvq7O-HwLPc1QNcso-1">
          <mxGeometry width="160" relative="1" as="geometry">
            <mxPoint x="175" y="310.0000000000001" as="sourcePoint" />
            <mxPoint x="175" y="349.9999999999999" as="targetPoint" />
          </mxGeometry>
        </mxCell>
      </root>
    </mxGraphModel>
  </diagram>
</mxfile>
